<svg width="22" height="22" viewBox="0 0 22 22" fill="none" xmlns="http://www.w3.org/2000/svg">
<path d="M18.8662 10.4002L4.35007 2.27112C4.22795 2.20274 4.08787 2.17325 3.94854 2.18661C3.80922 2.19997 3.67729 2.25554 3.57039 2.34588C3.46348 2.43623 3.38671 2.55705 3.35031 2.6922C3.31391 2.82735 3.31964 2.97039 3.36671 3.1022L6.10477 10.7688C6.15818 10.9183 6.15818 11.0817 6.10477 11.2312L3.36671 18.8978C3.31964 19.0296 3.31391 19.1726 3.35031 19.3078C3.3867 19.443 3.46348 19.5638 3.57039 19.6541C3.67729 19.7445 3.80922 19.8 3.94854 19.8134C4.08787 19.8267 4.22796 19.7973 4.35008 19.7289L18.8662 11.5998C18.9728 11.5401 19.0616 11.4531 19.1234 11.3476C19.1852 11.2422 19.2178 11.1222 19.2178 11C19.2178 10.8778 19.1852 10.7578 19.1234 10.6524C19.0616 10.5469 18.9728 10.4599 18.8662 10.4002V10.4002Z" stroke="white" stroke-width="2" stroke-linecap="round" stroke-linejoin="round"/>
<path d="M6.1875 11H11.6875" stroke="white" stroke-width="2" stroke-linecap="round" stroke-linejoin="round"/>
</svg>
