<svg width="161" height="23" viewBox="0 0 161 23" fill="none" xmlns="http://www.w3.org/2000/svg">
<path d="M14.48 2.68C14.48 1.33 14.15 0.999999 12.8 0.999999H12.26C10.91 0.999999 10.58 1.33 10.58 2.68V8.35C9.8 7.3 8.54 6.64 6.47 6.64C2.3 6.64 0.17 9.1 0.17 13.39V15.79C0.17 20.5 2.84 22.36 7.34 22.36C11.3 22.36 14.48 20.5 14.48 15.79V2.68ZM4.1 13.3C4.1 11.38 4.61 10.33 7.31 10.33C10.01 10.33 10.58 11.38 10.58 13.3V15.7C10.58 17.62 10.01 18.67 7.31 18.67C4.55 18.67 4.1 17.62 4.1 15.7V13.3ZM17.7329 20.32C17.7329 21.67 18.0629 22 19.4129 22H19.9529C21.3029 22 21.6329 21.67 21.6329 20.32V8.68C21.6329 7.33 21.3029 7 19.9529 7H19.4129C18.0629 7 17.7329 7.33 17.7329 8.68V20.32ZM17.3429 2.5C17.3429 3.79 18.3929 4.84 19.6829 4.84C20.9729 4.84 22.0229 3.76 22.0229 2.5C22.0229 1.24 20.9729 0.159999 19.6829 0.159999C18.3929 0.159999 17.3429 1.21 17.3429 2.5ZM28.8043 12.4C28.8043 11.05 29.1643 10.33 31.1143 10.33C31.1743 10.33 31.3843 10.33 31.4443 10.33C32.6743 10.42 32.9743 10.24 32.9743 8.89V8.56C32.9743 7.21 32.6443 6.64 31.4443 6.64C31.3243 6.64 31.1743 6.64 31.1143 6.64C27.0043 6.64 24.8743 8.56 24.8743 12.1V20.32C24.8743 21.67 25.2043 22 26.5543 22H27.1243C28.4743 22 28.8043 21.67 28.8043 20.32V12.4ZM47.5972 13.12C47.5972 8.86 45.4072 6.64 41.0272 6.64C35.8072 6.64 34.0372 9.52 34.0372 13.39V15.79C34.0372 20.44 36.5572 22.36 41.8672 22.36C43.5472 22.36 44.9572 22.12 45.5272 21.97C46.8472 21.64 47.1172 21.37 47.1172 20.02V19.69C47.1172 18.34 46.8472 17.98 45.5272 18.25C44.9572 18.37 43.4572 18.67 41.8972 18.67C39.1072 18.67 37.9672 17.95 37.9672 16.39V15.94H45.5872C46.9672 15.94 47.3572 15.67 47.5372 14.29C47.5972 13.75 47.5972 13.36 47.5972 13.12ZM37.9672 12.31C37.9672 10.81 38.9272 10.03 40.9072 10.03C42.8872 10.03 43.8772 10.81 43.8772 12.31V12.76H37.9672V12.31ZM49.9454 15.94C49.9454 20.05 52.1654 22.36 57.2654 22.36C58.1054 22.36 58.8854 22.24 59.2754 22.15C60.5954 21.88 60.9254 21.52 60.9254 20.17V19.87C60.9254 18.52 60.5954 18.25 59.2754 18.49C58.7954 18.58 58.1354 18.67 57.4454 18.67C54.9554 18.67 53.8754 17.98 53.8754 15.82V13.12C53.8754 10.9 54.8354 10.33 57.1754 10.33C58.0454 10.33 58.5854 10.42 59.0654 10.54C60.3254 10.84 60.6554 10.54 60.6554 9.19V8.86C60.6554 7.51 60.3254 7.12 59.0654 6.85C58.6754 6.76 58.0454 6.64 57.1154 6.64C52.3454 6.64 49.9454 9.22 49.9454 13.06V15.94ZM61.7638 9.19C61.7638 10.39 62.0638 10.69 63.2638 10.69H64.4638V16.6C64.4638 20.98 66.9238 22.33 70.2538 22.33C71.3038 22.33 71.9638 22.24 72.3538 22.15C73.6738 21.88 74.0038 21.37 74.0038 20.02V19.69C74.0038 18.34 73.6738 18.22 72.3538 18.46C72.0538 18.52 71.3038 18.64 70.2538 18.64C69.1138 18.64 68.3638 18.13 68.3638 16.63V10.69H71.7838C73.1338 10.69 73.4638 10.36 73.4638 9.01V8.68C73.4638 7.33 73.1338 7 71.7838 7H68.3638V4.66C68.3638 3.4 68.0638 3.1 66.8038 3.1H66.6238C65.3638 3.1 65.0038 3.4 64.8238 4.63L64.4638 7L63.2338 7.27C62.0638 7.51 61.7638 7.87 61.7638 9.07V9.19ZM75.6702 20.05C75.6702 21.34 76.7202 22.39 78.0102 22.39C79.3002 22.39 80.3502 21.34 80.3502 20.05C80.3502 18.76 79.3002 17.71 78.0102 17.71C76.7202 17.71 75.6702 18.76 75.6702 20.05Z" fill="#2978FD"/>
<path d="M87.0172 12.7C87.0172 11.17 87.4072 10.33 89.5072 10.33C91.6372 10.33 91.9972 11.17 91.9972 12.7V20.32C91.9972 21.67 92.3272 22 93.6772 22H94.1272C95.4772 22 95.8072 21.67 95.8072 20.32V12.7C95.8072 11.17 96.1972 10.33 98.3572 10.33C100.427 10.33 100.787 11.17 100.787 12.7V20.32C100.787 21.67 101.117 22 102.467 22H103.037C104.387 22 104.717 21.67 104.717 20.32V12.7C104.717 8.68 102.767 6.64 98.3572 6.64C96.3472 6.64 94.8472 7.3 93.9472 8.56C93.0772 7.3 91.6072 6.64 89.5072 6.64C85.3072 6.64 83.0872 8.77 83.0872 12.7V20.32C83.0872 21.67 83.4172 22 84.7672 22H85.3372C86.6872 22 87.0172 21.67 87.0172 20.32V12.7ZM120.927 13.12C120.927 8.86 118.737 6.64 114.357 6.64C109.137 6.64 107.367 9.52 107.367 13.39V15.79C107.367 20.44 109.887 22.36 115.197 22.36C116.877 22.36 118.287 22.12 118.857 21.97C120.177 21.64 120.447 21.37 120.447 20.02V19.69C120.447 18.34 120.177 17.98 118.857 18.25C118.287 18.37 116.787 18.67 115.227 18.67C112.437 18.67 111.297 17.95 111.297 16.39V15.94H118.917C120.297 15.94 120.687 15.67 120.867 14.29C120.927 13.75 120.927 13.36 120.927 13.12ZM111.297 12.31C111.297 10.81 112.257 10.03 114.237 10.03C116.217 10.03 117.207 10.81 117.207 12.31V12.76H111.297V12.31ZM137.585 2.68C137.585 1.33 137.255 0.999999 135.905 0.999999H135.365C134.015 0.999999 133.685 1.33 133.685 2.68V8.35C132.905 7.3 131.645 6.64 129.575 6.64C125.405 6.64 123.275 9.1 123.275 13.39V15.79C123.275 20.5 125.945 22.36 130.445 22.36C134.405 22.36 137.585 20.5 137.585 15.79V2.68ZM127.205 13.3C127.205 11.38 127.715 10.33 130.415 10.33C133.115 10.33 133.685 11.38 133.685 13.3V15.7C133.685 17.62 133.115 18.67 130.415 18.67C127.655 18.67 127.205 17.62 127.205 15.7V13.3ZM140.838 20.32C140.838 21.67 141.168 22 142.518 22H143.058C144.408 22 144.738 21.67 144.738 20.32V8.68C144.738 7.33 144.408 7 143.058 7H142.518C141.168 7 140.838 7.33 140.838 8.68V20.32ZM140.448 2.5C140.448 3.79 141.498 4.84 142.788 4.84C144.078 4.84 145.128 3.76 145.128 2.5C145.128 1.24 144.078 0.159999 142.788 0.159999C141.498 0.159999 140.448 1.21 140.448 2.5ZM160.25 11.8C160.25 7.87 157.4 6.64 152.99 6.64C151.73 6.64 151.01 6.73 150.56 6.79C149.27 6.97 148.94 7.33 148.94 8.62V8.74C148.94 10.09 149.33 10.33 150.62 10.15C151.07 10.09 152.03 9.97 153.23 9.97C155.09 9.97 156.35 10.24 156.35 11.8V12.94H153.32C149.75 12.94 147.23 14.11 147.23 17.62C147.23 20.71 149.15 22.36 153.74 22.36C158.36 22.36 160.25 20.71 160.25 17.53V11.8ZM156.35 17.32C156.35 18.97 155.03 19.09 153.68 19.09C152.33 19.09 151.13 18.97 151.13 17.53C151.13 16.42 151.82 15.88 153.26 15.88H156.35V17.32Z" fill="black"/>
</svg>
