<svg width="108" height="16" viewBox="0 0 108 16" fill="none" xmlns="http://www.w3.org/2000/svg">
<path d="M10.32 2.12C10.32 1.22 10.1 0.999999 9.2 0.999999H8.84C7.94 0.999999 7.72 1.22 7.72 2.12V5.9C7.2 5.2 6.36 4.76 4.98 4.76C2.2 4.76 0.78 6.4 0.78 9.26V10.86C0.78 14 2.56 15.24 5.56 15.24C8.2 15.24 10.32 14 10.32 10.86V2.12ZM3.4 9.2C3.4 7.92 3.74 7.22 5.54 7.22C7.34 7.22 7.72 7.92 7.72 9.2V10.8C7.72 12.08 7.34 12.78 5.54 12.78C3.7 12.78 3.4 12.08 3.4 10.8V9.2ZM12.4886 13.88C12.4886 14.78 12.7086 15 13.6086 15H13.9686C14.8686 15 15.0886 14.78 15.0886 13.88V6.12C15.0886 5.22 14.8686 5 13.9686 5H13.6086C12.7086 5 12.4886 5.22 12.4886 6.12V13.88ZM12.2286 2C12.2286 2.86 12.9286 3.56 13.7886 3.56C14.6486 3.56 15.3486 2.84 15.3486 2C15.3486 1.16 14.6486 0.439999 13.7886 0.439999C12.9286 0.439999 12.2286 1.14 12.2286 2ZM19.8695 8.6C19.8695 7.7 20.1095 7.22 21.4095 7.22C21.4495 7.22 21.5895 7.22 21.6295 7.22C22.4495 7.28 22.6495 7.16 22.6495 6.26V6.04C22.6495 5.14 22.4295 4.76 21.6295 4.76C21.5495 4.76 21.4495 4.76 21.4095 4.76C18.6695 4.76 17.2495 6.04 17.2495 8.4V13.88C17.2495 14.78 17.4695 15 18.3695 15H18.7495C19.6495 15 19.8695 14.78 19.8695 13.88V8.6ZM32.3981 9.08C32.3981 6.24 30.9381 4.76 28.0181 4.76C24.5381 4.76 23.3581 6.68 23.3581 9.26V10.86C23.3581 13.96 25.0381 15.24 28.5781 15.24C29.6981 15.24 30.6381 15.08 31.0181 14.98C31.8981 14.76 32.0781 14.58 32.0781 13.68V13.46C32.0781 12.56 31.8981 12.32 31.0181 12.5C30.6381 12.58 29.6381 12.78 28.5981 12.78C26.7381 12.78 25.9781 12.3 25.9781 11.26V10.96H31.0581C31.9781 10.96 32.2381 10.78 32.3581 9.86C32.3981 9.5 32.3981 9.24 32.3981 9.08ZM25.9781 8.54C25.9781 7.54 26.6181 7.02 27.9381 7.02C29.2581 7.02 29.9181 7.54 29.9181 8.54V8.84H25.9781V8.54ZM33.9636 10.96C33.9636 13.7 35.4436 15.24 38.8436 15.24C39.4036 15.24 39.9236 15.16 40.1836 15.1C41.0636 14.92 41.2836 14.68 41.2836 13.78V13.58C41.2836 12.68 41.0636 12.5 40.1836 12.66C39.8636 12.72 39.4236 12.78 38.9636 12.78C37.3036 12.78 36.5836 12.32 36.5836 10.88V9.08C36.5836 7.6 37.2236 7.22 38.7836 7.22C39.3636 7.22 39.7236 7.28 40.0436 7.36C40.8836 7.56 41.1036 7.36 41.1036 6.46V6.24C41.1036 5.34 40.8836 5.08 40.0436 4.9C39.7836 4.84 39.3636 4.76 38.7436 4.76C35.5636 4.76 33.9636 6.48 33.9636 9.04V10.96ZM41.8425 6.46C41.8425 7.26 42.0425 7.46 42.8425 7.46H43.6425V11.4C43.6425 14.32 45.2825 15.22 47.5025 15.22C48.2025 15.22 48.6425 15.16 48.9025 15.1C49.7825 14.92 50.0025 14.58 50.0025 13.68V13.46C50.0025 12.56 49.7825 12.48 48.9025 12.64C48.7025 12.68 48.2025 12.76 47.5025 12.76C46.7425 12.76 46.2425 12.42 46.2425 11.42V7.46H48.5225C49.4225 7.46 49.6425 7.24 49.6425 6.34V6.12C49.6425 5.22 49.4225 5 48.5225 5H46.2425V3.44C46.2425 2.6 46.0425 2.4 45.2025 2.4H45.0825C44.2425 2.4 44.0025 2.6 43.8825 3.42L43.6425 5L42.8225 5.18C42.0425 5.34 41.8425 5.58 41.8425 6.38V6.46ZM51.1134 13.7C51.1134 14.56 51.8134 15.26 52.6734 15.26C53.5334 15.26 54.2334 14.56 54.2334 13.7C54.2334 12.84 53.5334 12.14 52.6734 12.14C51.8134 12.14 51.1134 12.84 51.1134 13.7ZM58.6781 8.8C58.6781 7.78 58.9381 7.22 60.3381 7.22C61.7581 7.22 61.9981 7.78 61.9981 8.8V13.88C61.9981 14.78 62.2181 15 63.1181 15H63.4181C64.3181 15 64.5381 14.78 64.5381 13.88V8.8C64.5381 7.78 64.7981 7.22 66.2381 7.22C67.6181 7.22 67.8581 7.78 67.8581 8.8V13.88C67.8581 14.78 68.0781 15 68.9781 15H69.3581C70.2581 15 70.4781 14.78 70.4781 13.88V8.8C70.4781 6.12 69.1781 4.76 66.2381 4.76C64.8981 4.76 63.8981 5.2 63.2981 6.04C62.7181 5.2 61.7381 4.76 60.3381 4.76C57.5381 4.76 56.0581 6.18 56.0581 8.8V13.88C56.0581 14.78 56.2781 15 57.1781 15H57.5581C58.4581 15 58.6781 14.78 58.6781 13.88V8.8ZM81.2848 9.08C81.2848 6.24 79.8248 4.76 76.9048 4.76C73.4248 4.76 72.2448 6.68 72.2448 9.26V10.86C72.2448 13.96 73.9248 15.24 77.4648 15.24C78.5848 15.24 79.5248 15.08 79.9048 14.98C80.7848 14.76 80.9648 14.58 80.9648 13.68V13.46C80.9648 12.56 80.7848 12.32 79.9048 12.5C79.5248 12.58 78.5248 12.78 77.4848 12.78C75.6248 12.78 74.8648 12.3 74.8648 11.26V10.96H79.9448C80.8648 10.96 81.1248 10.78 81.2448 9.86C81.2848 9.5 81.2848 9.24 81.2848 9.08ZM74.8648 8.54C74.8648 7.54 75.5048 7.02 76.8248 7.02C78.1448 7.02 78.8048 7.54 78.8048 8.54V8.84H74.8648V8.54ZM92.3903 2.12C92.3903 1.22 92.1703 0.999999 91.2703 0.999999H90.9103C90.0103 0.999999 89.7903 1.22 89.7903 2.12V5.9C89.2703 5.2 88.4303 4.76 87.0503 4.76C84.2703 4.76 82.8503 6.4 82.8503 9.26V10.86C82.8503 14 84.6303 15.24 87.6303 15.24C90.2703 15.24 92.3903 14 92.3903 10.86V2.12ZM85.4703 9.2C85.4703 7.92 85.8103 7.22 87.6103 7.22C89.4103 7.22 89.7903 7.92 89.7903 9.2V10.8C89.7903 12.08 89.4103 12.78 87.6103 12.78C85.7703 12.78 85.4703 12.08 85.4703 10.8V9.2ZM94.5589 13.88C94.5589 14.78 94.7789 15 95.6789 15H96.0389C96.9389 15 97.1589 14.78 97.1589 13.88V6.12C97.1589 5.22 96.9389 5 96.0389 5H95.6789C94.7789 5 94.5589 5.22 94.5589 6.12V13.88ZM94.2989 2C94.2989 2.86 94.9989 3.56 95.8589 3.56C96.7189 3.56 97.4189 2.84 97.4189 2C97.4189 1.16 96.7189 0.439999 95.8589 0.439999C94.9989 0.439999 94.2989 1.14 94.2989 2ZM107.5 8.2C107.5 5.58 105.6 4.76 102.66 4.76C101.82 4.76 101.34 4.82 101.04 4.86C100.18 4.98 99.9598 5.22 99.9598 6.08V6.16C99.9598 7.06 100.22 7.22 101.08 7.1C101.38 7.06 102.02 6.98 102.82 6.98C104.06 6.98 104.9 7.16 104.9 8.2V8.96H102.88C100.5 8.96 98.8198 9.74 98.8198 12.08C98.8198 14.14 100.1 15.24 103.16 15.24C106.24 15.24 107.5 14.14 107.5 12.02V8.2ZM104.9 11.88C104.9 12.98 104.02 13.06 103.12 13.06C102.22 13.06 101.42 12.98 101.42 12.02C101.42 11.28 101.88 10.92 102.84 10.92H104.9V11.88Z" fill="#2978FD"/>
</svg>
